<mxfile host="app.diagrams.net" modified="2023-06-07T11:17:29.028Z" agent="Mozilla/5.0 (Windows NT 10.0; Win64; x64) AppleWebKit/537.36 (KHTML, like Gecko) Chrome/114.0.0.0 Safari/537.36" version="21.3.7" etag="IKVCeLCProMycjOnSsr2" type="github">
  <diagram name="Sayfa -1" id="FImM7PQ11e-2ZyEKC8ue">
    <mxGraphModel>
      <root>
        <mxCell id="0" />
        <mxCell id="1" parent="0" />
      </root>
    </mxGraphModel>
  </diagram>
</mxfile>
